/* XPM */
static char *dummy[]={
"10 30 11 1",
"# c #000000",
"g c #0000ff",
"i c #008183",
"h c #00ffff",
"d c #838100",
"a c #838183",
"c c #c5c2c5",
"e c #ff0000",
"f c #ff8100",
"b c #ffff00",
". c #ffffff",
"...##a#...",
".##bbbbcb.",
".#bbbbbbca",
"#bbbbbbbba",
"#bbbbbbbb#",
"#bbbbbbbbc",
"#bbbbbbbb#",
".#bbbbbbd.",
".##bbbbb#.",
"...##a#...",
"...####...",
".##eeeeb#.",
".#eeeeee#.",
"#eeeeeeeee",
"#eeeeeeeef",
"#eeeeeeeef",
"#eeeeeeeef",
".eeeeeeeff",
".##eeeeef.",
"...#e##f..",
"...####...",
".##ggggg#.",
".#gggggghi",
"#ggggggggi",
"#ggggggggg",
"#ggggggggi",
"#ggggggggi",
".#ggggggig",
".##ggggg#.",
"...##h#i.."};
