/* XPM */
static char *dummy[]={
"20 50 10 1",
"# c #000000",
"e c #0000ff",
"f c #008100",
"g c #009900",
"h c #ff0000",
"c c #ff8100",
"d c #ff9900",
"a c #ffff83",
"b c #ffff9c",
". c #ffffff",
".#aaaaaaaaaaaaaaa##.",
"baaaaaaaaaaaaaaaaa.#",
"aaaaaaaaaaaaaaaaaa.#",
"aaaaaaaaaaaaaaaaaab#",
"aaaaaaaaaaaaaaaaaabb",
"aaaaaaaaaaaaaaaaaab#",
"baaaaaaaaaaaaaaaa.b#",
"#baaaaaaaaaaaaaabb.#",
"#b.bb.bb...........#",
".#b################.",
".#####cccccccccc#d#.",
"#dccccccccccccccc..#",
"dccccccccccccccccc.#",
"ccccccccccccccccccd#",
"cccccccccccccccccc.d",
"ccccccccccccccccccd#",
"ccccccccccccccccc.dd",
"dccccccccccccccc.d.d",
"#dcccccccc.........#",
".#######e##ee######.",
".#eeeeeeeeeeeeeeee#.",
"eeeeeeeeeeeeeeeeee.#",
"eeeeeeeeeeeeeeeeeee#",
"eeeeeeeeeeeeeeeeeee#",
"eeeeeeeeeeeeeeeeeee#",
"eeeeeeeeeeeeeeeeeee#",
"eeeeeeeeeeeeeeeeee.#",
"#eeeeeeeeeeeeeeee..#",
"#.e................#",
".##################.",
".##ffffffffffffff##.",
"#.ffffffffffffffff.#",
"#ffffffffffffffffff#",
"#ffffffffffffffffff#",
"#ffffffffffffffffff#",
"#ffffffffffffffffff#",
"#gffffffffffffffff.#",
"gg.ffffffffffffffg.#",
"#......g...........#",
".#g######h#####h###.",
".#hhhhhhhhhhhhhhhh#.",
"#hhhhhhhhhhhhhhhhh.#",
"hhhhhhhhhhhhhhhhhhh#",
"hhhhhhhhhhhhhhhhhhh#",
"hhhhhhhhhhhhhhhhhhh#",
"hhhhhhhhhhhhhhhhhhh#",
"hhhhhhhhhhhhhhhhhhhh",
"#hhhhhhhhhhhhhhhh..#",
"#..h..........hh...#",
".##################."};
