/* XPM */
static char *dummy[]={
"40 200 12 1",
". c #000000",
"j c #000099",
"f c #0000ff",
"h c #993300",
"i c #999900",
"c c #999999",
"g c #9999ff",
"e c #ff0000",
"d c #ff9900",
"a c #ffff00",
"b c #ffff99",
"# c #ffffff",
"........................................",
".######################################.",
".######################################.",
".######################################.",
".######################################.",
".##################a..ba###############.",
".################.b#bbcbad#############.",
".########.######bbbbcbbcbb#############.",
".########.######.bdabccbcad############.",
".######.....###.adbcbcbcd#d############.",
".########.#####.#bcbccabccc############.",
".########.#####.bbcbcbcdcd.############.",
".##############.adaccbcbdcd############.",
".###############acd#ccccc.#############.",
".###############.#adccccc.#############.",
".################..#caccd##############.",
".################a#a...################.",
".######################################.",
".######################################.",
"........................................",
"........................................",
".######################################.",
".######################################.",
".######################################.",
".######################################.",
".##################.e.e################.",
".################..eeeeae##############.",
".###############.###aee#e.#############.",
".########.######.#aaeeee#.#############.",
".########.#####.##eeeeeeeee############.",
".######.....###.aeeeeeeaeee############.",
".########.#####.aaeaeeeeeea############.",
".########.#####eeeeeeeeeeae############.",
".##############eeaaaeeeeeee############.",
".###############e#eaeee#ea#############.",
".################a.eeaee.##############.",
".#################eee.a################.",
".#####################a################.",
".######################################.",
"........................................",
"........................................",
".######################################.",
".######################################.",
".######################################.",
".######################################.",
".##################.bbf################.",
".################..#ff#bf##############.",
".###############.b#fgffgff#############.",
".########.######.fbbbgbffg#############.",
".########.#####.##bbggffbf.############.",
".######.....###.ff#gfgggffg############.",
".########.#####.#fbgfgfffgg############.",
".########.#####.ffffffgfff.############.",
".###############f#bffffgfgf############.",
".###############.fbfgffffb#############.",
".################f.#ff#ff##############.",
".##################.b.gf###############.",
".######################################.",
".######################################.",
"........................................",
"........................................",
".######################################.",
".######################################.",
".######################################.",
".######################################.",
".##########.##############.############.",
".#########..##############a.###########.",
".########.hh..............ad.##########.",
".#######.ahhhdd#dddddddddddadd#########.",
".######.hhhaaaaddddddddaaaddadd########.",
".#####.#hhaaaa#######dd###aaadd.#######.",
".######.ahh...............add#.########.",
".#######.hh.#############.dd..#########.",
".########.h.#############.#.###########.",
".#########..#############..############.",
".##########.#############.#############.",
".######################################.",
".######################################.",
".######################################.",
"........................................",
"........................................",
".######################################.",
".######################################.",
".######################################.",
".##########.###############.###########.",
".##########.d#############..###########.",
".##########dd.###########.dd###########.",
".#######....dd.#...bb..#.ddd...########.",
".#######.dddddh..haaab..#dddddh########.",
".#######.#aaadhh.haabab#ddaaahh########.",
".#######.##hhahh.hh##bb.####hh.########.",
".#######....ahh#....b..#.hh....########.",
".##########.hh###########.hh###########.",
".##########..#############.h###########.",
".##########.###############.###########.",
".######################################.",
".######################################.",
".######################################.",
".######################################.",
"........................................",
"........................................",
".######################################.",
".######################################.",
".######################################.",
".######################################.",
".#########....################.########.",
".#######..#idc.d##############..#######.",
".#######.#ichddh##############.e.######.",
".######.##cdhcdhc#.............ee.#####.",
".######.a#chcccch#.############eee.####.",
".######.ihhchhc#h#.#eeeeeeeeeeeeee.####.",
".######.ddhhchhch#.............#e.#####.",
".#######.d#c#hhhh#############.#.######.",
".#######..#cdhcc##############..#######.",
".#########h.dch###############.########.",
".######################################.",
".######################################.",
".######################################.",
".######################################.",
"........................................",
"........................................",
".######################################.",
".######################################.",
".######################################.",
".######################################.",
".#########....########.################.",
".#######..#h##..#####..################.",
".#######.#hiiihb####.#.################.",
".######.hhhiihibi##.#f.......##########.",
".######.hiihibiii#.##fffffff.##########.",
".######.hhiiibbii#.#########.##########.",
".######.#iihiiiii##.##.......##########.",
".#######.hihii#ii###.#.################.",
".#######.bbiiih.#####..################.",
".#########i.bii#######.################.",
".###########b##########################.",
".######################################.",
".######################################.",
".######################################.",
"........................................",
"........................................",
".######################################.",
".######################################.",
".######################################.",
".##########.....######.....############.",
".##########.fff.######.#ee.############.",
".##########.fff.######.#ee.############.",
".##########.fff.######.#ee.############.",
".##########.fff.######.#ee.############.",
".##########.#ff.######.eee.############.",
".##########.fff#.####.#eee.############.",
".##########.fff#.####.#eee.############.",
".##########.ffff#....#eeee.############.",
".##########.#ffffffeeee#ee.############.",
".###########.jfffffeeeeee.#############.",
".############.fffffeeeee.##############.",
".#############.....e..e.###############.",
".######################################.",
".######################################.",
"........................................",
"........................................",
".######################################.",
".######################################.",
".########....#############....#########.",
".########.e#.#############.e#.#########.",
".########.ee.#############.e#.#########.",
".########.e#.#############.ee.#########.",
".#######......###########......########.",
".#######.####.##ee#ee#ee#.####.########.",
".#######.iihhh.#ee#ee#ee#.#ihhh.#######.",
".#######.ii#hh............iiihh.#######.",
".#######.iiihh............i#ihh.#######.",
".#######.#i#ih.##########.iiihhh#######.",
".#######.#ii##.##########.ii#h#.#######.",
".#######........................#######.",
".######################################.",
".######################################.",
".######################################.",
".######################################.",
"........................................",
"########################################",
"########################################",
"########################################",
"########################################",
"########################################",
"########################################",
"########################################",
"########################################",
"########################################",
"########################################",
"########################################",
"########################################",
"########################################",
"########################################",
"########################################",
"########################################",
"########################################",
"########################################",
"########################################",
"########################################"};
